HIERARCHY
ROOT Hips
{
  OFFSET -33.9132 29.2015 117.021
  CHANNELS 6 Xposition Yposition Zposition Zrotation Xrotation Yrotation
  JOINT LeftUpLeg
  {
    OFFSET 8.64259 1.95398 -2.38835
    CHANNELS 3 Zrotation Xrotation Yrotation
    JOINT LeftLeg
    {
      OFFSET 43.7702 0 0
      CHANNELS 3 Zrotation Xrotation Yrotation
      JOINT LeftFoot
      {
        OFFSET 40.6238 0 0
        CHANNELS 3 Zrotation Xrotation Yrotation
        JOINT LeftToeBase
        {
          OFFSET 12.7242 0 0
          CHANNELS 3 Zrotation Xrotation Yrotation
          End Site
          {
            OFFSET 0 0 0
          }
        }
      }
    }
  }
  JOINT RightUpLeg
  {
    OFFSET -8.2249 1.95398 -2.59336
    CHANNELS 3 Zrotation Xrotation Yrotation
    JOINT RightLeg
    {
      OFFSET 43.5653 0 0
      CHANNELS 3 Zrotation Xrotation Yrotation
      JOINT RightFoot
      {
        OFFSET 40.6238 0 0
        CHANNELS 3 Zrotation Xrotation Yrotation
        JOINT RightToeBase
        {
          OFFSET 12.7242 0 0
          CHANNELS 3 Zrotation Xrotation Yrotation
          End Site
          {
            OFFSET 0 0 0
          }
        }
      }
    }
  }
  JOINT Spine
  {
    OFFSET 0.165834 0.87714 6.61349
    CHANNELS 3 Zrotation Xrotation Yrotation
    JOINT Spine1
    {
      OFFSET 7.38963 1.71661e-005 0
      CHANNELS 3 Zrotation Xrotation Yrotation
      JOINT Spine2
      {
        OFFSET 11.9445 1.14441e-005 0
        CHANNELS 3 Zrotation Xrotation Yrotation
        JOINT Spine3
        {
          OFFSET 14.7254 4.19617e-005 0
          CHANNELS 3 Zrotation Xrotation Yrotation
          JOINT Spine4
          {
            OFFSET 10.9679 0 0
            CHANNELS 3 Zrotation Xrotation Yrotation
            JOINT RightShoulder
            {
              OFFSET 2.46616 -1.6653 3.69651
              CHANNELS 3 Zrotation Xrotation Yrotation
              JOINT RightArm
              {
                OFFSET 13.0012 0 0
                CHANNELS 3 Zrotation Xrotation Yrotation
                JOINT RightForeArm
                {
                  OFFSET 28.7848 1.62311e-005 0
                  CHANNELS 3 Zrotation Xrotation Yrotation
                  JOINT RightHand
                  {
                    OFFSET 26.5688 1.62095e-005 0
                    CHANNELS 3 Zrotation Xrotation Yrotation
                    End Site
                    {
                      OFFSET 0 0 0
                    }
                  }
                }
              }
            }
            JOINT LeftShoulder
            {
              OFFSET 2.38034 -1.29275 -3.7523
              CHANNELS 3 Zrotation Xrotation Yrotation
              JOINT LeftArm
              {
                OFFSET 16.3182 6.07031e-005 0
                CHANNELS 3 Zrotation Xrotation Yrotation
                JOINT LeftForeArm
                {
                  OFFSET 27.0901 0 0
                  CHANNELS 3 Zrotation Xrotation Yrotation
                  JOINT LeftHand
                  {
                    OFFSET 24.5451 1.51738e-005 0
                    CHANNELS 3 Zrotation Xrotation Yrotation
                    End Site
                    {
                      OFFSET 0 0 0
                    }
                  }
                }
              }
            }
            JOINT Neck
            {
              OFFSET 5.0226 -0.0266342 0
              CHANNELS 3 Zrotation Xrotation Yrotation
              JOINT Head
              {
                OFFSET 6.69364 2.86102e-005 0
                CHANNELS 3 Zrotation Xrotation Yrotation
                End Site
                {
                  OFFSET 0 0 0
                }
              }
            }
          }
        }
      }
    }
  }
}
MOTION
Frames:	10
Frame Time:	0.0416667
29.3337 102.03 -320.248 162.741 -82.3773 162.163 -174.911 -3.85128 89.7664 -11.1642 16.9894 0.992756 63.7285 3.15687 4.11604 27.0504 -1.18517 0.900683 172.972 -4.64219 88.5819 -12.2459 -9.46794 -0.602512 63.9822 -2.37696 0.457506 26.2386 0.650243 1.9115 0.0459155 8.11986 -90.004 10.6342 0.0896478 -0.0160922 -1.03674 0.0888593 -0.0200218 -23.5719 0.0903451 0.0115966 -3.55927 0.0903485 0.0116055 89.4082 -30.1953 -107.852 49.2799 3.24083 -10.9013 -5.56656 -45.6961 -5.61479 -19.3934 2.86504 -22.4563 -89.7847 -50.812 79.22 -22.8562 -7.46621 -20.4533 175.839 54.4505 -179.969 46.6091 -6.32969 -11.7085 5.39766 -1.59492 -4.92165 -4.27567 -0.681215 2.2493 
29.2593 102.035 -320.22 160.528 -82.5512 160.204 -174.599 -3.23719 90.1969 -11.5788 16.2916 0.758361 64.1062 3.18563 3.17449 27.2435 -0.931255 0.527968 173.214 -4.7056 88.9788 -11.7154 -9.27608 -0.583668 64.0735 -2.61733 -0.363268 24.6124 0.742475 4.08878 0.029767 8.08598 -90.0398 10.702 0.0409663 -0.0827643 -0.968976 0.0372844 -0.0844976 -23.5041 0.0639591 -0.0666209 -3.49148 0.0639421 -0.0666409 89.1218 -30.0509 -108.474 49.3505 3.21808 -10.8637 -5.53218 -45.2493 -5.59266 -18.9323 2.54589 -20.9485 -90.2591 -51.0149 78.5609 -23.8078 -9.47582 -19.0594 177.025 53.9284 -179.969 45.5025 -6.65131 -13.0166 5.16016 -1.68803 -5.08685 -4.22944 -0.754137 2.42756 
29.3449 102.051 -320.218 164.594 -82.4124 163.951 -174.72 -3.75433 89.7458 -11.17 15.0785 0.717493 63.9993 3.0627 2.80136 27.0336 -0.966238 0.384694 172.862 -4.74729 88.4735 -12.0775 -9.90166 -0.595388 64.6225 -3.04593 -0.904974 22.9449 0.872456 6.02775 0.0615343 8.12751 -90.0084 10.6188 0.118717 -0.0275258 -1.05211 0.117391 -0.032729 -23.5873 0.121502 0.00942575 -3.57466 0.121499 0.00941575 89.1005 -29.93 -108.565 49.2209 3.35498 -10.6394 -5.55122 -45.3263 -5.60722 -19.1083 2.79948 -22.3308 -90.291 -51.2393 78.562 -22.0984 -7.10639 -20.5444 175.354 56.9197 -179.967 46.1113 -6.26169 -11.7235 4.95541 -1.78078 -5.18505 -3.91014 -0.83106 2.53876 
29.2463 102.054 -320.198 164.311 -82.9514 164.089 -174.477 -3.02703 90.3138 -11.5569 15.2156 0.623315 64.2183 3.11962 2.91648 26.8319 -0.857672 -0.0738893 173.36 -4.9004 89.0944 -11.1523 -9.4091 -0.621566 64.2733 -2.89669 -0.785809 23.1625 0.708317 6.27458 0.0659089 8.08137 -90.0523 10.7112 0.107238 -0.113661 -0.95975 0.102123 -0.118277 -23.4949 0.13643 -0.0761785 -3.48227 0.136435 -0.0761817 89.1923 -29.8023 -108.436 49.3901 3.21108 -10.8257 -5.57571 -45.4933 -5.62604 -18.8582 2.68676 -21.8807 -90.1939 -51.199 78.6967 -21.9861 -6.29609 -18.8887 175.094 60.9459 -179.963 43.8953 -6.43198 -13.0548 5.19145 -1.73722 -5.03096 -4.16935 -0.806155 2.11344 
29.2627 102.042 -320.217 164.909 -83.2121 164.76 -174.446 -2.73365 90.3261 -11.6358 15.1052 0.563038 64.1988 3.06753 2.94479 27.156 -0.793484 0.119721 173.443 -4.49318 89.1893 -11.2849 -9.47474 -0.64126 64.2941 -2.95495 -0.71961 22.5841 1.11478 5.70308 0.0743618 8.05989 -90.0472 10.7541 0.126363 -0.105483 -0.916794 0.121589 -0.110945 -23.452 0.152221 -0.0626322 -3.43934 0.152221 -0.0626231 89.1092 -30.0892 -108.483 49.1212 3.33975 -10.8379 -5.5735 -45.4969 -5.6262 -18.5232 2.67999 -22.1535 -90.3015 -50.9603 78.4865 -22.2402 -6.66651 -19.4074 174.948 63.6858 -179.959 42.8921 -6.45046 -13.6284 5.38536 -1.6379 -5.3014 -4.39889 -0.656571 2.30455 
29.349 102.061 -320.182 166.549 -83.0015 166.048 -174.721 -3.20076 89.8439 -11.3459 14.1509 0.723113 64.3504 3.13339 2.39762 26.1107 -1.04875 -0.387887 173.106 -4.37814 88.6994 -11.7878 -9.94765 -0.669447 64.4188 -2.96821 -0.772677 22.9424 0.973715 5.68524 0.0786265 8.08198 -89.9793 10.7099 0.166125 0.0258136 -0.961088 0.167102 0.0184665 -23.4963 0.150688 0.0745458 -3.48366 0.150687 0.0745394 89.1124 -30.4257 -108.341 49.1806 3.29783 -10.8768 -5.56691 -45.4848 -5.62346 -18.6246 2.57987 -21.4384 -90.1734 -50.3106 78.5363 -22.7547 -6.82521 -19.7915 174.637 67.7091 -179.952 41.2662 -6.31763 -14.1521 5.34044 -1.66589 -5.93398 -4.30229 -0.574629 2.90477 
29.2569 102.057 -320.15 166.804 -83.3615 166.689 -174.463 -2.65891 90.401 -11.7752 14.3318 0.610879 64.554 3.20362 2.5601 26.5786 -0.832106 -0.39374 173.513 -4.3064 89.2648 -11.3603 -9.78434 -0.709775 64.1235 -2.89629 -0.910221 23.1707 0.748921 6.12695 0.0904871 8.04714 -90.0308 10.7797 0.165986 -0.0766239 -0.891268 0.162456 -0.0838538 -23.4265 0.181339 -0.0231946 -3.41386 0.181342 -0.0231909 89.0044 -30.3613 -108.579 49.0357 3.39151 -10.8082 -5.5455 -45.3706 -5.61031 -18.4231 2.56087 -21.5046 -90.088 -50.6215 78.7301 -22.264 -6.39536 -19.0397 174.136 73.774 -179.935 38.1119 -6.23214 -15.6654 5.22502 -1.72173 -5.74768 -4.05491 -0.662653 2.81191 
29.2789 102.036 -320.065 170.92 -83.2993 170.671 -174.551 -3.05768 90.1696 -11.5457 14.3821 0.635737 64.2455 3.13718 2.84369 27.2709 -0.858987 0.397429 173.342 -4.16223 89.0003 -11.9327 -10.4683 -0.725151 64.3228 -2.94503 -0.920614 23.0478 0.911702 5.74836 0.137769 8.07446 -90.0043 10.7251 0.272409 -0.033395 -0.945829 0.270684 -0.045354 -23.4812 0.269853 0.0500243 -3.46856 0.269856 0.0500225 89.1471 -30.4715 -108.254 49.0153 3.35431 -10.9549 -5.54141 -45.3722 -5.60953 -18.3449 2.57728 -21.6808 -90.186 -50.2584 78.5063 -22.6766 -6.86286 -19.3743 173.842 79.1338 -179.904 35.1905 -5.71753 -15.9826 5.16212 -1.82319 -6.11083 -4.01445 -0.700029 2.99654 
29.3488 102.025 -320.022 171.962 -83.2039 171.597 -174.544 -3.26715 89.9877 -11.3555 14.3987 0.56852 64.024 3.0531 2.99242 27.6332 -0.615792 0.216276 173.107 -4.11356 88.7279 -12.2718 -10.9208 -0.643 64.4713 -3.05412 -1.06316 23.3239 0.759844 5.88117 0.137589 8.08081 -90.018 10.7123 0.265746 -0.0602428 -0.958593 0.262842 -0.0718923 -23.494 0.27156 0.0224134 -3.48132 0.271566 0.0224101 89.3717 -30.0772 -107.971 49.2351 3.22862 -11.007 -5.50833 -45.1458 -5.58808 -17.8963 2.49617 -21.5891 -90.2436 -50.8262 78.5434 -22.3351 -6.79757 -19.4966 172.993 85.6432 -179.762 31.8967 -5.17431 -16.5088 5.37851 -1.77501 -5.30933 -4.54759 -0.793702 2.32974 
29.363 102.021 -319.959 173.747 -83.2665 173.43 -174.507 -3.19924 90.0301 -11.6856 13.5753 0.551047 64.6087 3.41608 2.66022 26.903 -0.738565 -0.2714 173.047 -3.9814 88.7194 -12.4348 -11.3009 -0.581686 64.3576 -3.03146 -1.3087 23.6356 0.629586 5.8943 0.148461 8.08236 -90.0244 10.7093 0.284459 -0.0746011 -0.961618 0.280902 -0.0870574 -23.497 0.293722 0.0143341 -3.48438 0.293723 0.0143313 89.5417 -29.9378 -107.69 49.4294 3.08258 -11.1581 -5.50355 -45.0987 -5.58585 -17.687 2.47488 -21.6538 -90.1432 -50.9854 78.7259 -22.101 -6.72053 -19.2066 -6.94789 87.507 -0.414999 27.5461 -4.1266 -15.8948 5.76299 -1.86805 -5.43407 -5.00683 -0.855799 2.49204 
